<svg
  xmlns="http://www.w3.org/2000/svg"
  width="42"
  height="42"
  fill="none"
  viewBox="0 0 42 42"
  style="display: none;"
>
  <symbol id="logo-phone" viewBox="0 0 42 42">
    <circle cx="21" cy="21" r="20.75" fill="#f4f7ff" stroke="#e7e7e7" stroke-width=".5"/>
    <g fill="#212b36" clip-path="url(#a)">
      <path d="M29.834 22.685c-.069-.791-.722-1.341-1.512-1.341H13.678c-.79 0-1.41.584-1.513
      1.34l-.721 7.22a1.6 1.6 0 0 0 .378 1.168c.275.31.687.481 1.134.481h16.122a1.62 1.62 0 0 0
      1.134-.48c.275-.31.413-.723.378-1.17zm-.55 7.597c-.034.034-.103.103-.24.103H12.956a.4.4 0 0
      1-.24-.104.23.23 0 0 1-.07-.24l.723-7.253c0-.172.137-.275.309-.275h14.678c.172 0
      .275.103.31.275l.721 7.253c-.034.103-.068.206-.103.24"/>
      <path d="M21 24.025a2.39 2.39 0 0 0-2.406 2.406A2.39 2.39 0 0 0 21 28.838a2.39 2.39 0 0 0
      2.406-2.407A2.39 2.39 0 0 0 21 24.025m0 3.61c-.653 0-1.203-.55-1.203-1.204s.55-1.203
      1.203-1.203 1.203.55 1.203 1.203-.55 1.203-1.203 1.203m-8.731-10.896c.069 1.512 1.41
      2.13 2.097 2.13h2.44c1.031-.068 2.063-.755 2.063-2.13v-.825h4.881v.825c0 1.375 1.031
      2.062 2.063 2.13h2.406c.687 0
      2.028-.618
      2.097-2.13v-1.445q-.155-1.443-1.032-2.37l-.034-.035c-.86-.79-1.89-1.238-2.681-1.513-2.303-.894-5.19-.894-5.328-.894-2.029.035-3.335.207-5.294.894-.756.24-1.788.688-2.647
      1.478l-.034.035q-.877.928-1.032 2.372v.618c.035.31.035.722.035.86m1.856-3.025c.688-.62 1.547-.997
      2.269-1.272 1.787-.653 2.956-.79 4.915-.825.138 0 2.82.034 4.882.825.722.275 1.58.619 2.268
      1.272.378.412.62.962.688
      1.615v1.375c-.034.79-.79.963-.894.963h-2.372c-.343-.035-.893-.172-.893-.928v-1.41c0-.275-.172-.48-.413-.584-.206-.069-6.222-.069-6.428
      0-.24.069-.413.31-.413.584v1.41c0 .756-.55.893-.893.928h-2.372c-.103
      0-.86-.172-.894-.963v-1.34a2.07 2.07 0 0 1 .55-1.65"/>
    </g>
    <defs>
      <clipPath id="a">
        <path fill="#fff" d="M10 10h22v22H10z"/>
      </clipPath>
    </defs>
  </symbol>
</svg>