<svg
  xmlns="http://www.w3.org/2000/svg"
  width="42"
  height="42"
  fill="none"
  viewBox="0 0 42 42"
  style="display: none;"
>
  <symbol id="logo-private" viewBox="0 0 42 42">
    <circle cx="21" cy="21" r="20.75" fill="#f4f7ff" stroke="#e7e7e7" stroke-width=".5"/>
    <path fill="#212b36"
      d="M21 22.513a5.135 5.135 0 0 0 5.122-5.122c0-2.82-2.303-5.157-5.122-5.157a5.135 5.135 0 0
      0-5.122 5.122c0 2.819 2.303 5.156 5.122 5.156m0-9.076a3.917 3.917 0 0 1 3.919 3.92 3.917
      3.917 0 0 1-3.92 3.918 3.917 3.917 0 0 1-3.918-3.919c0-2.131 1.753-3.919 3.919-3.919M31.347
      28.7c-2.853-2.44-6.532-3.781-10.347-3.781-3.816 0-7.494 1.34-10.347
      3.781-.275.206-.31.584-.069.86.207.24.585.274.86.068 2.646-2.234 6.05-3.472 9.59-3.472s6.944
      1.238 9.59 3.472a.52.52 0 0 0 .379.138.55.55 0 0 0 .447-.207c.206-.275.172-.653-.103-.859"/>
  </symbol>
</svg>