<svg
  xmlns="http://www.w3.org/2000/svg"
  width="105"
  height="22"
  fill="none"
  viewBox="0 0 105 22"
  style="display: none;"
>
  <symbol id="logo-name" viewBox="0 0 105 22">
    <path
      fill="#362122" d="M7.522 4.657v16.95h-2.98V4.658H0V1.855h12.051v2.802zm14.725
      4.49h2.892v12.46h-2.892v-1.304q-1.777 1.663-3.825 1.663-2.584
      0-4.273-1.868-1.676-1.905-1.676-4.759 0-2.801 1.676-4.67 1.677-1.867 4.196-1.867
      2.175 0 3.902 1.79zm-6.831 6.192q0 1.79.96 2.917.984 1.139 2.481 1.139 1.6 0
      2.584-1.1.985-1.14.985-2.892t-.985-2.891q-.985-1.113-2.558-1.113-1.485 0-2.482
      1.126-.985 1.138-.985 2.814M31.65 9.147v12.46h-2.878V9.148zm-3.313-5.181q0-.754.55-1.305t1.318-.55q.78 0
      1.33.55.55.537.55 1.318 0 .78-.55 1.33a1.77 1.77 0 0 1-1.317.55q-.78
      0-1.331-.55a1.83 1.83 0 0 1-.55-1.343M38.175 0v21.608h-2.879V0zm14.354 11.322h8.162v.652q0
      2.227-.525 3.94-.51 1.587-1.727 2.969-2.75 3.096-6.998 3.096-4.145 0-7.1-2.994-2.955-3.007-2.955-7.215
      0-4.3 3.006-7.292Q47.4 1.47 51.71 1.47q2.316 0 4.324.947 1.92.946 3.774
      3.07l-2.124 2.034q-2.43-3.236-5.923-3.236-3.134 0-5.258 2.162-2.123 2.124-2.123 5.322 0 3.3 2.366
      5.437 2.214 1.983 4.798 1.983 2.2 0 3.953-1.484 1.752-1.497
      1.957-3.582H52.53zm11.373-2.175h2.878v1.113q.794-.832 1.408-1.138.627-.32 1.484-.32 1.138 0
      2.38.742l-1.319 2.635q-.818-.588-1.599-.588-2.354 0-2.354 3.556v6.46h-2.878zm13.088
      0v12.46h-2.88V9.148zm-3.314-5.181q0-.754.55-1.305t1.318-.55q.78 0 1.33.55.55.537.55
      1.318 0 .78-.55 1.33a1.77 1.77 0 0 1-1.317.55q-.78 0-1.331-.55a1.83
      1.83 0 0 1-.55-1.343M89.82 0h2.892v21.608h-2.891v-1.305q-1.702 1.663-3.85
      1.663-2.56 0-4.248-1.868-1.676-1.905-1.676-4.759 0-2.789 1.676-4.657 1.663-1.88 4.183-1.88
      2.188 0 3.915 1.79zm-6.83 15.339q0 1.79.959 2.917.985 1.139 2.482 1.139 1.599 0
      2.584-1.1.985-1.14.985-2.892t-.985-2.891q-.986-1.113-2.559-1.113-1.484 0-2.482 1.126-.984
      1.138-.985 2.814m20.597-4.069-2.379 1.267q-.562-1.15-1.395-1.151-.396 0-.678.269a.86.86
      0 0 0-.281.665q0 .715 1.663 1.42 2.29.985 3.083 1.816t.793 2.24q0 1.803-1.33 3.018-1.292
      1.152-3.122 1.152-3.135 0-4.439-3.058l2.456-1.138q.513.895.78 1.138.525.486 1.255.486
      1.458 0 1.458-1.33 0-.768-1.126-1.433a41 41 0 0
      0-.87-.422q-.435-.204-.883-.422-1.253-.615-1.765-1.228-.653-.78-.653-2.009 0-1.625 1.113-2.686
      1.139-1.062 2.764-1.062 2.392 0 3.556 2.469"
    />
  </symbol>
</svg>