<svg
  xmlns="http://www.w3.org/2000/svg"
  width="42"
  height="42"
  fill="none"
  viewBox="0 0 42 42"
  style="display: none;"
>
  <symbol id="logo-like" viewBox="0 0 42 42">
    <circle cx="21" cy="21" r="20.75" fill="#f4f7ff" stroke="#e7e7e7" stroke-width=".5"/>
    <path fill="#212b36"
      d="M21 29.462c-.363 0-.756-.124-1.027-.403-.695-.618-1.39-1.206-1.995-1.732-1.783-1.547-3.324-2.877-4.412-4.208-1.27-1.547-1.874-3.032-1.874-4.671
      0-1.61.544-3.094 1.541-4.177a5.18 5.18 0 0 1 3.899-1.732c1.118 0 2.176.37 3.082
      1.082.272.217.544.464.786.743a6 6 0 0 1 .786-.743c.906-.711 1.934-1.082 3.082-1.082 1.511 0
      2.871.618 3.899 1.732.997 1.083 1.54 2.568 1.54 4.177 0 1.64-.604 3.124-1.873 4.671-1.088
      1.33-2.629 2.661-4.412 4.208-.604.526-1.3 1.114-1.994 1.732a1.6 1.6 0 0 1-1.028.403M17.132
      13.59a4.1 4.1 0 0 0-3.113 1.393c-.816.897-1.239 2.103-1.239 3.434 0 1.361.514 2.63 1.602
      3.99 1.027 1.27 2.538 2.569 4.291 4.084.605.526 1.3 1.114 1.995 1.764a.534.534 0 0 0 .664
      0c.726-.619 1.39-1.238 1.995-1.764 1.753-1.515 3.264-2.815 4.291-4.083 1.088-1.361 1.602-2.63
      1.602-3.991 0-1.33-.453-2.537-1.24-3.434-.815-.898-1.903-1.393-3.112-1.393-.906
      0-1.722.279-2.417.867-.303.216-.544.495-.816.804a.84.84 0 0 1-.635.31.84.84 0 0
      1-.635-.31 4 4 0 0 0-.816-.804c-.695-.557-1.51-.867-2.417-.867"/>
    <path fill="#212b36" fill-rule="evenodd"
      d="M20.372 13.423c.212.169.426.357.628.566.202-.209.416-.397.628-.566l.001-.001c.95-.745
      2.031-1.137 3.24-1.137 1.584 0 3.01.65 4.084 1.814 1.045 1.135 1.608 2.683 1.608 4.349
      0 1.711-.634 3.251-1.93 4.832-1.084 1.325-2.605 2.645-4.34
      4.149l-.102.09-.655.565c-.43.37-.882.76-1.337 1.164-.317.288-.77.467-1.197.467-.411
      0-.872-.138-1.203-.472-.452-.403-.903-.79-1.331-1.16q-.34-.29-.655-.565l-.103-.089c-1.734-1.504-3.255-2.824-4.338-4.149-1.297-1.58-1.931-3.12-1.931-4.832
      0-1.665.562-3.213 1.607-4.348a5.43 5.43 0 0 1 4.086-1.815 5.2 5.2 0 0 1
      3.239 1.137zm-7.139.848c-.997 1.083-1.54 2.568-1.54 4.177 0 1.64.604 3.124 1.873 4.671 1.07
      1.308 2.577 2.616 4.32 4.129l.092.079.651.562c.43.371.887.764 1.343 1.17.272.279.665.403
      1.028.403a1.6 1.6 0 0 0
      1.027-.403c.457-.406.913-.799 1.344-1.17q.338-.29.651-.562l.091-.08c1.745-1.512 3.252-2.82
      4.321-4.128 1.27-1.547 1.874-3.032
      1.874-4.671 0-1.61-.544-3.094-1.541-4.177-1.028-1.114-2.388-1.732-3.899-1.732-1.148
      0-2.176.37-3.082 1.082a6.3 6.3 0 0 0-.786.743 6.3 6.3 0 0 0-.786-.743 4.94 4.94 0 0
      0-3.082-1.082 5.18 5.18 0 0 0-3.899 1.732m.974.882c-.768.844-1.173 1.987-1.173 3.264 0
      1.288.483 2.502 1.546 3.832.993 1.226 2.452 2.487 4.173 3.976l.086.074.391.34c.503.434
      1.055.91 1.606 1.426.087.07.246.07.332-.003.424-.362.82-.717
      1.198-1.056q.407-.367.794-.706l.087-.075c1.721-1.489 3.18-2.75 4.173-3.977 1.063-1.329
      1.546-2.543 1.546-3.831 0-1.272-.433-2.417-1.175-3.265-.769-.845-1.788-1.308-2.923-1.308-.85
      0-1.607.26-2.253.806l-.008.007-.009.006c-.27.194-.49.444-.762.753l-.008.01a1.1 1.1 0 0
      1-.828.398c-.324 0-.636-.162-.831-.403l-.004-.004a3.8 3.8 0 0 0-.763-.754l-.006-.004-.005-.004a3.55
      3.55 0 0 0-2.26-.81 3.84 3.84 0 0 0-2.92 1.305zm7.428.108.02-.024c.264-.3.501-.57.796-.78.695-.588
      1.51-.867 2.417-.867 1.209 0 2.297.495 3.113 1.393.785.897 1.239 2.103 1.239 3.434 0 1.361-.514
      2.63-1.602 3.99-1.008 1.245-2.481 2.52-4.192 3.999l-.1.085q-.375.331-.785.698c-.382.343-.785.705-1.209
      1.066a.534.534 0 0 1-.664 0 55 55 0 0
      0-1.602-1.423l-.393-.34-.1-.087c-1.71-1.479-3.183-2.753-4.191-3.997-1.088-1.361-1.602-2.63-1.602-3.991
      0-1.33.423-2.537 1.24-3.434a4.1 4.1 0 0 1 3.112-1.393c.906 0 1.722.31
      2.417.867.303.216.575.495.816.804.152.186.393.31.635.31a.84.84 0 0 0 .635-.31" clip-rule="evenodd"/>
  </symbol>
</svg>