<svg width="32" height="32" viewBox="0 0 32 32" fill="none" xmlns="http://www.w3.org/2000/svg">
<path d="M3.69986 14.2502C3.84986 14.2502 3.99986 14.2502 4.09986 14.2002L9.64986 12.2502C10.0999 12.1002 10.3499 11.6002 10.1999 11.1502C10.0499 10.7002 9.54986 10.4502 9.09986 10.6002L5.74986 11.8002C7.39986 7.2502 11.7499 4.1502 16.7999 4.1502C22.1499 4.1502 26.8499 7.7002 28.1499 12.8502C28.2499 13.3002 28.7499 13.6002 29.1999 13.5002C29.6499 13.4002 29.9499 12.9002 29.8499 12.4502C28.3499 6.5502 22.9499 2.4502 16.7999 2.4502C10.7999 2.4502 5.59986 6.3002 3.89986 11.9002L2.34986 7.5502C2.19986 7.1002 1.69986 6.8502 1.24986 7.0002C0.799858 7.1502 0.549858 7.6502 0.699858 8.1002L2.59986 13.5502C2.74986 13.9502 3.24986 14.2502 3.69986 14.2502Z" fill="#3056D3"/>
<path d="M31.2999 24.9503L29.2499 19.5503C29.1499 19.2503 28.8999 19.0003 28.5999 18.9003C28.2999 18.8003 27.9999 18.7503 27.6999 18.9003L22.1999 21.0003C21.7499 21.1503 21.4999 21.7003 21.6999 22.1503C21.8499 22.6003 22.3999 22.8503 22.8499 22.6503L26.2499 21.3503C24.3499 25.3003 20.2999 27.9003 15.6999 27.9003C10.6499 27.9003 6.19986 24.7503 4.64986 20.0503C4.44986 19.6003 3.94986 19.3503 3.49986 19.5003C3.04986 19.6503 2.79986 20.1503 2.94986 20.6003C4.74986 26.0003 9.84986 29.6503 15.6499 29.6503C21.1499 29.6503 26.0499 26.4003 28.0499 21.4503L29.6499 25.6003C29.7999 25.9503 30.0999 26.1503 30.4499 26.1503C30.5499 26.1503 30.6499 26.1503 30.7499 26.1003C31.2499 25.9003 31.4999 25.4003 31.2999 24.9503Z" fill="#3056D3"/>
</svg>
