<svg width="32" height="32" viewBox="0 0 32 32" fill="none" xmlns="http://www.w3.org/2000/svg">
<path d="M27.1999 10.7502H26.6999V7.95021C26.6999 6.75021 26.1499 5.70021 25.1999 5.00021C24.2499 4.30021 23.0499 4.15021 21.9499 4.55021L4.0499 10.7502C2.1499 10.8502 0.649902 12.4002 0.649902 14.3502V24.0502C0.649902 26.0502 2.2499 27.6502 4.2499 27.6502H27.1999C29.1999 27.6502 30.7999 26.0502 30.7999 24.0502V14.3502C30.7999 12.3502 29.1499 10.7502 27.1999 10.7502ZM22.4999 6.20021C23.0499 6.00021 23.6999 6.10021 24.1999 6.45021C24.6999 6.80021 24.9999 7.35021 24.9999 7.95021V10.7502H9.3999L22.4999 6.20021ZM27.1999 25.9002H4.2499C3.2499 25.9002 2.3999 25.0502 2.3999 24.0502V14.3502C2.3999 13.3502 3.2499 12.5002 4.2499 12.5002H27.1999C28.1999 12.5002 29.0499 13.3502 29.0499 14.3502V15.7002H23.1999C21.2499 15.7002 19.6499 17.3002 19.6499 19.2502C19.6499 21.2002 21.2499 22.8002 23.1999 22.8002H29.0499V24.0002C29.0499 25.0502 28.1999 25.9002 27.1999 25.9002ZM29.0499 17.4502V21.1002H23.1999C22.1999 21.1002 21.3999 20.3002 21.3999 19.3002C21.3999 18.3002 22.1999 17.5002 23.1999 17.5002H29.0499V17.4502Z" fill="#3056D3"/>
</svg>
