<svg
  xmlns="http://www.w3.org/2000/svg"
  width="42"
  height="42"
  fill="none"
  viewBox="0 0 42 42"
  style="display: none;"
>
  <symbol id="logo-bin" viewBox="0 0 42 42">
    <circle cx="21" cy="21" r="20.75" fill="#f4f7ff" stroke="#e7e7e7" stroke-width=".5"/>
    <g fill="#212b36" clip-path="url(#a)">
      <path
        d="M29.697 16.772h-1.031l-2.338-5.947a.64.64 0 0 0-.79-.344.64.64 0 0 0-.344.79l2.165
        5.535H14.606l2.166-5.534c.137-.31-.035-.653-.344-.79-.31-.138-.653.034-.79.343L13.3
        16.772h-1.031a.96.96 0 0 0-.963.962v2.922a.96.96 0 0 0 .963.963h.034l.894 7.837a2.42 2.42 0 0 0
        2.406 2.131h10.725a2.42 2.42 0 0 0 2.406-2.13l.894-7.838h.034a.96.96 0 0 0
        .963-.963v-2.922a.91.91 0 0 0-.928-.962m-17.153 1.203h16.912v2.406H12.544zm15.022 11.31a1.195
        1.195 0 0 1-1.204 1.065H15.637a1.195 1.195 0 0 1-1.203-1.066l-.893-7.7h14.918z"/>
      <path
        d="M17.39 27.463a.616.616 0 0 0 .62-.62v-2.646a.616.616 0 0 0-.62-.619.616.616 0 0
        0-.618.619v2.647c0 .343.275.618.619.618m7.219.001a.616.616 0 0 0 .618-.62v-2.646a.616.616 0 0
        0-.619-.619.616.616 0 0 0-.618.619v2.647c.034.343.31.618.619.618"/>
    </g>
    <defs>
      <clipPath id="a">
        <path fill="#fff" d="M10 10h22v22H10z"/>
      </clipPath>
    </defs>
  </symbol>
</svg>
