<svg
  xmlns="http://www.w3.org/2000/svg"
  width="40"
  height="40"
  fill="none"
  viewBox="0 0 40 40"
  style="display: none;"
>
  <symbol id="logo-main" viewBox="0 0 40 40">
    <g fill="#3056d3" clip-path="url(#a)">
      <path d="M39.936 18.352a.816.816 0 0 0-.8-.736H19.2a3.1 3.1 0 0 0-2.64 1.6 2.8 2.8 0 0 0 0 2.784.86.86 0 0 0 .72.464h21.904a.816.816 0 0 0 .8-.736v-1.6a24 24 0 0 0-.048-1.776" opacity=".72"/>
      <path d="M39.92 18.352a.8.8 0 0 0-.784-.736h-3.2a.8.8 0 0 0-.592.272.75.75 0 0 0-.192.608v1.6a15.2 15.2 0 0 1-7.04 12.8c-.224.144-.432.32-.672.448a15 15 0 0 1-3.744 1.504l2.096 3.728a.8.8 0 0 0 .704.4.7.7 0 0 0 .256 0l.512-.208.464-.192q1.063-.441 2.064-1.008A20.05 20.05 0 0 0 40 19.952c0-.592-.032-1.056-.08-1.6"/>
      <path d="M28.595 33.539a.86.86 0 0 0-.48-.384h-.224a.9.9 0 0 0-.4.096 15.04 15.04 0 0 1-7.488 1.968 15.23 15.23 0 0 1-15.2-15.2 15.23 15.23 0 0 1 15.2-15.2c2.623 0 5.202.678 7.488 1.968a.7.7 0 0 0 .4.112h.176a.82.82 0 0 0 .528-.384l1.6-2.784a.816.816 0 0 0-.288-1.104A20.03 20.03 0 0 0 20.035.035a20.03 20.03 0 0 0-20 20 20.03 20.03 0 0 0 20 20c3.459.003 6.86-.89 9.872-2.592a.784.784 0 0 0 .288-1.088z"/>
      <path d="M22.288 22.4h-5.056a.9.9 0 0 1-.704-.432l9.296 16.464a.8.8 0 0 0 .704.4q.136.023.272 0c1.057-.38 2.08-.852 3.056-1.408a.784.784 0 0 0 .288-1.088z" opacity=".56"/>
    </g>
    <defs>
      <clipPath id="a">
        <path fill="#fff" d="M0 0h40v40H0z"/>
      </clipPath>
    </defs>
  </symbol>
</svg>
