<svg 
  xmlns="http://www.w3.org/2000/svg"
  width="10"
  height="5"
  fill="none"
  viewBox="0 0 10 5"
  style="display: none;"
>
  <symbol id="ptichka" viewBox="0 0 10 5">
    <path
      fill="var(--color-text, #637381)"
      d="M4.652 4.655a.7.7 0 0 1-.476-.19L.42.795A.28.28 0 0 1 .406.429a.25.25 0 0 1 .35-.014l3.756 3.672c.07.073.196.073.28 0L8.548.415c.098-.102.252-.088.35.014s.084.263-.014.365L5.128 4.45a.7.7 0 0 1-.476.204"
    />
    <path
      fill="var(--color-text, #637381)"
      fill-rule="evenodd"
      d="M3.935 4.712.172 1.032A.62.62 0 0 1 .14.21L.15.2.158.19c.23-.24.596-.24.828-.033l.006.006 3.66 3.579L8.303.172c.26-.265.638-.195.843.018.25.26.189.632-.014.843l-.007.008-3.76 3.662c-.194.18-.443.297-.713.297a1.03 1.03 0 0 1-.712-.282zM8.548.415 4.792 4.087c-.084.073-.21.073-.28 0L.757.415a.25.25 0 0 0-.35.014.28.28 0 0 0 .013.365l3.756 3.672c.14.13.308.19.476.19a.7.7 0 0 0 .476-.205L8.885.794c.098-.102.112-.263.014-.365s-.252-.116-.35-.014"
      clip-rule="evenodd"
    />
  </symbol>
</svg>
