<svg
  xmlns="http://www.w3.org/2000/svg"
  style="display: none;"
>
  <symbol id="star-smart" viewbox="0 0 20 20">
    <svg viewBox="0 0 19 19" x="0.5" y="0.5" width="19" height="19">
      <path class="star-core" fill="var(--color-star-core, #ffa645)"
        d="m17.697 6.531-5.656-.875L9.478.281a.48.48 0 0
        0-.875 0L6.04 5.688.415 6.53c-.406.063-.562.594-.25.875l4.094
        4.219-.969 5.906c-.062.407.344.75.72.5l5.093-2.781 5.063
        2.781c.343.188.78-.125.687-.5l-.969-5.906 4.094-4.219c.25-.281.125-.812-.281-.875"
      />
    </svg>
    <svg viewBox="0 0 20 20">
      <path class="star-border" fill="var(--color-star-border, #ffa645)"
        d="M4.442 19.188c-.25 0-.5-.063-.72-.22a1.28 1.28 0 0
        1-.53-1.28l.843-5.313L.38 8.594A1.33 1.33 0 0 1 .067 7.25a1.3 1.3 0 0 1
        1-.875l5.093-.812L8.442.718A1.27 1.27 0 0 1 9.567 0c.5 0 .906.281 1.124.719l2.344
        4.812 5.094.813c.469.062.844.406 1 .875s.031 1-.312 1.343l-3.688 3.782.875
        5.344c.094.5-.125 1-.531 1.28-.375.282-.875.313-1.313.095l-4.562-2.5-4.563
        2.5a1.3 1.3 0 0 1-.593.125M1.16 7.844l3.782 3.875a.81.81 0 0 1 .218.75l-.875
        5.406c-.031.125.063.188.094.219.063.062.125.031.156 0l4.688-2.563a.86.86 0 0 1 .781
        0l4.688 2.531c.03 0 .062.032.156 0a.3.3 0 0 0 .093-.218l-.875-5.438a.94.94 0 0 1
        .22-.75l3.75-3.875c.093-.093.062-.187.062-.25
        0-.031-.063-.125-.125-.125l-5.25-.812c-.282-.032-.5-.219-.625-.469L9.754
        1.188c-.031-.094-.094-.094-.156-.094-.031 0-.094.031-.156.093l-2.344
        4.97c-.125.25-.344.437-.625.468l-5.219.844c-.094
        0-.125.093-.125.125-.031.031-.062.156.031.25"
      />
    </svg>
  </symbol>
</svg>